<svg width="32" height="32" viewBox="0 0 32 32" fill="none" xmlns="http://www.w3.org/2000/svg">
<path d="M19.995 2.6665H7.99504C7.28779 2.6665 6.60951 2.94746 6.10942 3.44755C5.60932 3.94765 5.32837 4.62593 5.32837 5.33317V26.6665C5.32837 27.3737 5.60932 28.052 6.10942 28.5521C6.60951 29.0522 7.28779 29.3332 7.99504 29.3332H23.995C24.7023 29.3332 25.3806 29.0522 25.8807 28.5521C26.3808 28.052 26.6617 27.3737 26.6617 26.6665V9.33317L19.995 2.6665Z" stroke="#A1A1AA" stroke-width="2.66667" stroke-linecap="round" stroke-linejoin="round"/>
<path d="M18.6619 2.6665V7.99984C18.6619 8.70708 18.9428 9.38536 19.4429 9.88546C19.943 10.3856 20.6213 10.6665 21.3285 10.6665H26.6619" stroke="#A1A1AA" stroke-width="2.66667" stroke-linecap="round" stroke-linejoin="round"/>
<path d="M13.3285 12H10.6619" stroke="#A1A1AA" stroke-width="2.66667" stroke-linecap="round" stroke-linejoin="round"/>
<path d="M21.3285 17.3335H10.6619" stroke="#A1A1AA" stroke-width="2.66667" stroke-linecap="round" stroke-linejoin="round"/>
<path d="M21.3285 22.6665H10.6619" stroke="#A1A1AA" stroke-width="2.66667" stroke-linecap="round" stroke-linejoin="round"/>
</svg>
